<svg width="130" height="130" viewBox="0 0 130 130" fill="none" xmlns="http://www.w3.org/2000/svg">
<path d="M113.75 27.0833C107.738 25.1875 101.129 24.375 94.7917 24.375C84.2292 24.375 72.8542 26.5417 65 32.5C57.1459 26.5417 45.7709 24.375 35.2084 24.375C24.6459 24.375 13.2709 26.5417 5.41669 32.5V111.854C5.41669 113.208 6.77085 114.562 8.12502 114.562C8.66669 114.562 8.93752 114.292 9.47919 114.292C16.7917 110.771 27.3542 108.333 35.2084 108.333C45.7709 108.333 57.1459 110.5 65 116.458C72.3125 111.854 85.5834 108.333 94.7917 108.333C103.729 108.333 112.938 109.958 120.521 114.021C121.063 114.292 121.333 114.292 121.875 114.292C123.229 114.292 124.583 112.938 124.583 111.583V32.5C121.333 30.0625 117.813 28.4375 113.75 27.0833ZM113.75 100.208C107.792 98.3125 101.292 97.5 94.7917 97.5C85.5834 97.5 72.3125 101.021 65 105.625V43.3333C72.3125 38.7292 85.5834 35.2083 94.7917 35.2083C101.292 35.2083 107.792 36.0208 113.75 37.9167V100.208Z" fill="#885B25"/>
<path d="M94.7917 56.875C99.5584 56.875 104.163 57.3625 108.333 58.2833V50.05C104.054 49.2375 99.45 48.75 94.7917 48.75C85.5834 48.75 77.2417 50.3208 70.4167 53.2458V62.2375C76.5375 58.7708 85.0417 56.875 94.7917 56.875ZM70.4167 67.6542V76.6458C76.5375 73.1792 85.0417 71.2833 94.7917 71.2833C99.5584 71.2833 104.163 71.7708 108.333 72.6917V64.4583C104.054 63.6458 99.45 63.1583 94.7917 63.1583C85.5834 63.1583 77.2417 64.7833 70.4167 67.6542ZM94.7917 77.6208C85.5834 77.6208 77.2417 79.1917 70.4167 82.1167V91.1083C76.5375 87.6417 85.0417 85.7458 94.7917 85.7458C99.5584 85.7458 104.163 86.2333 108.333 87.1542V78.9208C104.054 78.0542 99.45 77.6208 94.7917 77.6208Z" fill="#885B25"/>
</svg>
