<svg width="130" height="130" viewBox="0 0 130 130" fill="none" xmlns="http://www.w3.org/2000/svg">
<g clip-path="url(#clip0_46_13)">
<path d="M65 1.25305e-05C62.2519 -0.0178345 59.5273 0.507683 56.9829 1.54635C54.4385 2.58503 52.1245 4.11636 50.174 6.05233C48.2234 7.98831 46.6747 10.2907 45.617 12.8272C44.5592 15.3637 44.0132 18.0843 44.0104 20.8325C44.0101 24.1403 44.7986 27.4005 46.3106 30.3425C47.8226 33.2845 50.0144 35.8235 52.7042 37.7488L37.5917 47.7696C37.5917 51.1388 38.3717 53.8038 39.9425 56.7017H53.2458C53.17 58.0288 53.17 59.6754 53.17 61.7121C53.17 61.8457 53.1808 61.9739 53.2025 62.0967C52.8558 69.4254 50.4563 80.9034 33.5942 93.7408C29.1742 97.1263 25.8863 101.839 23.8117 107.461C23.7067 107.599 23.6244 107.753 23.5679 107.916C22.1497 112.319 21.4368 116.919 21.4554 121.545C21.4554 122.086 22.6254 130 64.9946 130C107.364 130 108.534 122.092 108.534 121.545C108.534 109.482 104.07 99.6179 96.4004 93.7408C74.5496 77.0575 76.9763 62.6492 76.6621 56.7017H89.9763C91.5471 53.8038 92.3271 51.1388 92.3271 47.7696L77.2146 37.8246C79.897 35.8925 82.083 33.352 83.5933 30.4114C85.1036 27.4709 85.8951 24.2141 85.9029 20.9083C85.9022 16.738 84.6576 12.6627 82.3284 9.20356C79.9991 5.74439 76.691 3.05858 72.8271 1.4896C72.8054 1.47876 72.7729 1.51126 72.7459 1.51126C70.2856 0.512621 67.6553 -0.000559431 65 1.25305e-05Z" fill="#E6D9C2"/>
</g>
<defs>
<clipPath id="clip0_46_13">
<rect width="130" height="130" fill="white"/>
</clipPath>
</defs>
</svg>
