<svg width="150" height="143" viewBox="0 0 150 143" fill="none" xmlns="http://www.w3.org/2000/svg">
<path d="M132.143 67.9165H121.429V40.7499C121.429 37.1474 119.923 33.6924 117.244 31.1451C114.565 28.5977 110.932 27.1666 107.143 27.1666H78.5714V16.9791C78.5714 12.476 76.6901 8.15728 73.3412 4.97307C69.9923 1.78887 65.4503 0 60.7143 0C55.9783 0 51.4362 1.78887 48.0874 4.97307C44.7385 8.15728 42.8571 12.476 42.8571 16.9791V27.1666H14.2857C10.4969 27.1666 6.86328 28.5977 4.18419 31.1451C1.5051 33.6924 0 37.1474 0 40.7499V66.5582H10.7143C21.4286 66.5582 30 74.7082 30 84.8956C30 95.0831 21.4286 103.233 10.7143 103.233H0V129.041C0 132.644 1.5051 136.099 4.18419 138.646C6.86328 141.194 10.4969 142.625 14.2857 142.625H41.4286V132.437C41.4286 122.25 50 114.1 60.7143 114.1C71.4286 114.1 80 122.25 80 132.437V142.625H107.143C110.932 142.625 114.565 141.194 117.244 138.646C119.923 136.099 121.429 132.644 121.429 129.041V101.875H132.143C136.879 101.875 141.421 100.086 144.77 96.9017C148.119 93.7175 150 89.3988 150 84.8956C150 80.3925 148.119 76.0738 144.77 72.8896C141.421 69.7054 136.879 67.9165 132.143 67.9165Z" fill="#885B25"/>
</svg>
